<svg width="164" height="127" viewBox="0 0 164 127" fill="none" xmlns="http://www.w3.org/2000/svg">
<path fill-rule="evenodd" clip-rule="evenodd" d="M147.333 0.583008C151.825 0.583008 155.671 1.81506 158.869 4.2793C162.068 6.74353 163.667 9.70659 163.667 13.167V88.667C163.667 92.1272 162.068 95.0896 158.869 97.5537C155.671 100.018 151.825 101.25 147.333 101.25H33L0.333008 126.417V13.167C0.333008 9.7066 1.93229 6.74352 5.13086 4.2793C8.32947 1.81506 12.1753 0.583008 16.667 0.583008H147.333ZM78.624 82.8164C76.576 82.8164 74.8692 83.5415 73.5039 84.9922C72.1387 86.3575 71.4561 88.0218 71.4561 89.9844C71.4561 91.9467 72.1388 93.653 73.5039 95.1035C74.8692 96.4688 76.576 97.1523 78.624 97.1523C80.5867 97.1523 82.2509 96.4688 83.6162 95.1035C85.0666 93.653 85.7919 91.9467 85.792 89.9844C85.792 88.0218 85.0667 86.3575 83.6162 84.9922C82.2509 83.5415 80.5867 82.8164 78.624 82.8164ZM82.208 9.72754C79.5628 9.72754 76.9603 10.0267 74.4004 10.624C71.9259 11.2213 69.6641 12.117 67.6162 13.3115C65.5682 14.5062 63.9466 16.0852 62.752 18.0479C61.5573 19.9252 60.96 22.1867 60.96 24.832C60.96 27.2212 61.5574 29.2264 62.752 30.8477C63.9466 32.469 65.696 33.2803 68 33.2803C69.9627 33.2803 71.5417 32.7255 72.7363 31.6162C73.931 30.4216 74.5283 28.8851 74.5283 27.0078C74.5283 25.3012 74.2291 24.1065 73.6318 23.4238C73.0345 22.6559 72.3945 22.0159 71.7119 21.5039C71.1147 20.9066 70.8165 20.0534 70.8164 18.9443C70.8164 17.4937 71.4137 16.3416 72.6084 15.4883C73.803 14.635 75.2108 13.995 76.832 13.5684C78.5387 13.1417 80.0751 12.9277 81.4404 12.9277C83.9148 12.9278 85.9628 13.5252 87.584 14.7197C89.2053 15.9144 90.4 17.5786 91.168 19.7119C91.936 21.8452 92.3203 24.2772 92.3203 27.0078C92.3203 30.8478 91.7656 34.091 90.6562 36.7363C89.5469 39.3816 88.1809 41.771 86.5596 43.9043C84.9384 46.0374 83.3174 48.1706 81.6963 50.3037C80.075 52.437 78.7089 54.9116 77.5996 57.7275C76.4903 60.5435 75.9356 64.0425 75.9355 68.2236V73.2158H80.5439V68.2236C80.544 65.3225 81.0987 62.8051 82.208 60.6719C83.4027 58.4532 84.8965 56.4056 86.6885 54.5283C88.4804 52.651 90.3577 50.8164 92.3203 49.0244C94.3683 47.1471 96.2881 45.1837 98.0801 43.1357C99.872 41.0878 101.322 38.7836 102.432 36.2236C103.626 33.6637 104.224 30.6769 104.224 27.2637C104.224 23.9359 103.584 21.1629 102.304 18.9443C101.024 16.6403 99.3169 14.8484 97.1836 13.5684C95.1356 12.2031 92.7888 11.2213 90.1436 10.624C87.5837 10.0268 84.9385 9.72754 82.208 9.72754Z" fill="#1D1B20"/>
</svg>
