<svg width="164" height="126" viewBox="0 0 164 126" fill="none" xmlns="http://www.w3.org/2000/svg">
<path fill-rule="evenodd" clip-rule="evenodd" d="M147 0C151.492 0 155.338 1.23205 158.536 3.69629C161.735 6.16052 163.334 9.12359 163.334 12.584V88.084C163.334 91.5442 161.735 94.5066 158.536 96.9707C155.338 99.4349 151.492 100.667 147 100.667H32.667L0 125.834V12.584C0 9.12359 1.59928 6.16052 4.79785 3.69629C7.99646 1.23205 11.8423 0 16.334 0H147ZM78.291 82.2334C76.243 82.2334 74.5362 82.9585 73.1709 84.4092C71.8057 85.7745 71.123 87.4388 71.123 89.4014C71.1231 91.3637 71.8058 93.07 73.1709 94.5205C74.5362 95.8858 76.243 96.5693 78.291 96.5693C80.2537 96.5693 81.9179 95.8858 83.2832 94.5205C84.7335 93.07 85.4589 91.3637 85.459 89.4014C85.459 87.4388 84.7337 85.7745 83.2832 84.4092C81.9179 82.9585 80.2537 82.2334 78.291 82.2334ZM81.875 9.14453C79.2298 9.14453 76.6273 9.44374 74.0674 10.041C71.5929 10.6383 69.3311 11.534 67.2832 12.7285C65.2352 13.9232 63.6136 15.5022 62.4189 17.4648C61.2243 19.3422 60.627 21.6037 60.627 24.249C60.627 26.6382 61.2244 28.6434 62.4189 30.2646C63.6136 31.886 65.363 32.6973 67.667 32.6973C69.6297 32.6973 71.2087 32.1425 72.4033 31.0332C73.5979 29.8385 74.1953 28.3021 74.1953 26.4248C74.1953 24.7182 73.8961 23.5235 73.2988 22.8408C72.7015 22.0729 72.0615 21.4329 71.3789 20.9209C70.7817 20.3236 70.4835 19.4704 70.4834 18.3613C70.4834 16.9107 71.0807 15.7586 72.2754 14.9053C73.47 14.052 74.8778 13.412 76.499 12.9854C78.2057 12.5587 79.7421 12.3447 81.1074 12.3447C83.5818 12.3448 85.6298 12.9422 87.251 14.1367C88.8723 15.3314 90.067 16.9956 90.835 19.1289C91.6029 21.2622 91.9873 23.6942 91.9873 26.4248C91.9873 30.2648 91.4326 33.508 90.3232 36.1533C89.2139 38.7986 87.8479 41.188 86.2266 43.3213C84.6054 45.4544 82.9844 47.5876 81.3633 49.7207C79.742 51.854 78.3759 54.3286 77.2666 57.1445C76.1573 59.9605 75.6026 63.4595 75.6025 67.6406V72.6328H80.2109V67.6406C80.211 64.7394 80.7657 62.2221 81.875 60.0889C83.0697 57.8702 84.5635 55.8226 86.3555 53.9453C88.1474 52.068 90.0247 50.2334 91.9873 48.4414C94.0353 46.5641 95.9551 44.6007 97.7471 42.5527C99.539 40.5048 100.989 38.2005 102.099 35.6406C103.293 33.0807 103.891 30.0939 103.891 26.6807C103.891 23.3529 103.251 20.5799 101.971 18.3613C100.691 16.0573 98.9839 14.2654 96.8506 12.9854C94.8026 11.6201 92.4558 10.6383 89.8105 10.041C87.2507 9.44375 84.6055 9.14453 81.875 9.14453Z" fill="white"/>
</svg>
